<?xml version="1.0" encoding="utf-8"?>
<!-- Generator: Adobe Illustrator 23.0.1, SVG Export Plug-In . SVG Version: 6.00 Build 0)  -->
<svg version="1.1" id="Layer_1" xmlns="http://www.w3.org/2000/svg" xmlns:xlink="http://www.w3.org/1999/xlink" x="0px" y="0px"
	 viewBox="0 0 274 331" style="enable-background:new 0 0 274 331;" xml:space="preserve">
<path d="M-91.2,235c-1,0-1.9,0.1-2.9,0.3l-77.9-70.3l85.8-77.4c3.1-2.8,3.3-7.5,0.5-10.6c-2.8-3.1-7.5-3.3-10.6-0.5l-92,83
	c-1.6,1.4-2.5,3.4-2.5,5.6s0.9,4.1,2.5,5.6l83.7,75.6c-0.1,0.8-0.2,1.6-0.2,2.4c0,7.5,6,13.5,13.5,13.5s13.5-6,13.5-13.5
	C-77.8,241-83.8,235-91.2,235z"/>
<path d="M456.5,75h-80.8c-2.4-3.6-6.5-6-11.2-6C357,69,351,75,351,82.5c0,7.5,6,13.5,13.5,13.5c4.7,0,8.8-2.4,11.2-6H449v68h-84.5
	c-4.1,0-7.5,3.4-7.5,7.5s3.4,7.5,7.5,7.5h92c4.1,0,7.5-3.4,7.5-7.5v-83C464,78.4,460.6,75,456.5,75z"/>
<path d="M731.2,75c-4.1,0-7.5,3.4-7.5,7.5V158h-77V93.7c3.6-2.4,6-6.5,6-11.2c0-7.5-6-13.5-13.5-13.5s-13.5,6-13.5,13.5
	c0,4.7,2.4,8.8,6,11.2v71.8c0,4.1,3.4,7.5,7.5,7.5h92c4.1,0,7.5-3.4,7.5-7.5v-83C738.8,78.4,735.4,75,731.2,75z"/>
<path d="M993.8,90c2.4,3.6,6.5,6,11.2,6c7.5,0,13.5-6,13.5-13.5c0-7.5-6-13.5-13.5-13.5c-4.7,0-8.8,2.4-11.2,6h-80.3
	c-4.1,0-7.5,3.4-7.5,7.5v166c0,4.1,3.4,7.5,7.5,7.5h91c4.1,0,7.5-3.4,7.5-7.5s-3.4-7.5-7.5-7.5H921V90H993.8z"/>
<path d="M1553,69c-4.7,0-8.8,2.4-11.2,6h-80.3c-4.1,0-7.5,3.4-7.5,7.5v83c0,4.1,3.4,7.5,7.5,7.5s7.5-3.4,7.5-7.5V90h72.8
	c2.4,3.6,6.5,6,11.2,6c7.5,0,13.5-6,13.5-13.5C1566.5,75,1560.5,69,1553,69z"/>
<path d="M1827,69c-7.5,0-13.5,6-13.5,13.5c0,0.5,0,1.1,0.1,1.6l-83.2,75.8c-1.6,1.4-2.4,3.4-2.4,5.5v83c0,4.1,3.4,7.5,7.5,7.5
	s7.5-3.4,7.5-7.5v-79.7l80.4-73.3c1.2,0.3,2.4,0.5,3.6,0.5c7.5,0,13.5-6,13.5-13.5C1840.5,75,1834.5,69,1827,69z"/>
<path d="M2106.1,77.5c-2.8-3.1-7.5-3.3-10.6-0.5l-92,83c-1.6,1.4-2.5,3.4-2.5,5.6v72.3c-3.2,2.5-5.2,6.3-5.2,10.7
	c0,7.5,6,13.5,13.5,13.5s13.5-6,13.5-13.5c0-5-2.7-9.3-6.8-11.7v-68l89.5-80.8C2108.6,85.3,2108.8,80.6,2106.1,77.5z"/>
<path d="M2382.8,568.6V413.5c0-4.1-3.4-7.5-7.5-7.5h-92c-4.1,0-7.5,3.4-7.5,7.5v83c0,4.1,3.4,7.5,7.5,7.5s7.5-3.4,7.5-7.5V421h77
	v147c-3.9,2.4-6.5,6.6-6.5,11.5c0,7.5,6,13.5,13.5,13.5s13.5-6,13.5-13.5C2388.2,575,2386.1,571.1,2382.8,568.6z"/>
<path d="M2009.2,566c-0.6,0-1.1,0-1.7,0.1c-24.5-30.3-31.4-63.4-20.6-98.4c9-29,27.3-48.7,27.7-49.1c2.9-3,2.7-7.7-0.3-10.6
	c-3-2.9-7.7-2.7-10.6,0.3c-0.8,0.9-20.8,22.1-31,54.4c-8.9,28.3-11.5,70.2,23.4,113.2c-0.3,1.1-0.5,2.3-0.5,3.5
	c0,7.5,6,13.5,13.5,13.5s13.5-6,13.5-13.5C2022.8,572,2016.7,566,2009.2,566z"/>
<path d="M1827.2,406h-92c-4.1,0-7.5,3.4-7.5,7.5v154.8c-3.6,2.4-6,6.5-6,11.2c0,7.5,6,13.5,13.5,13.5s13.5-6,13.5-13.5
	c0-4.7-2.4-8.8-6-11.2V421h77v158.5c0,4.1,3.4,7.5,7.5,7.5s7.5-3.4,7.5-7.5v-166C1834.8,409.4,1831.4,406,1827.2,406z"/>
<path d="M1552.2,406h-91c-4.1,0-7.5,3.4-7.5,7.5v83c0,4.1,3.4,7.5,7.5,7.5s7.5-3.4,7.5-7.5V421h76v151h-72.3c-2.4-3.6-6.5-6-11.2-6
	c-7.5,0-13.5,6-13.5,13.5c0,7.5,6,13.5,13.5,13.5c4.7,0,8.8-2.4,11.2-6h79.8c4.1,0,7.5-3.4,7.5-7.5v-166
	C1559.8,409.4,1556.4,406,1552.2,406z"/>
<path d="M182.2,406h-79.8c-2.4-3.6-6.5-6-11.2-6c-7.5,0-13.5,6-13.5,13.5c0,7.5,6,13.5,13.5,13.5c4.7,0,8.8-2.4,11.2-6h79.8
	c4.1,0,7.5-3.4,7.5-7.5S186.4,406,182.2,406z"/>
<path d="M-91,897c-1.3,0-2.5,0.2-3.6,0.5l-80.4-73.3V752h76v75.5c0,4.1,3.4,7.5,7.5,7.5s7.5-3.4,7.5-7.5v-83c0-4.1-3.4-7.5-7.5-7.5
	h-91c-4.1,0-7.5,3.4-7.5,7.5v83c0,2.1,0.9,4.1,2.4,5.5l83.2,75.8c-0.1,0.5-0.1,1.1-0.1,1.6c0,7.5,6,13.5,13.5,13.5s13.5-6,13.5-13.5
	C-77.5,903-83.5,897-91,897z"/>
<path d="M188.3,821.9l-83.7-75.5c0.1-0.6,0.2-1.3,0.2-1.9c0-7.5-6-13.5-13.5-13.5s-13.5,6-13.5,13.5c0,7.5,6,13.5,13.5,13.5
	c1.1,0,2.2-0.2,3.3-0.4l81.2,73.3V903H91.2c-4.1,0-7.5,3.4-7.5,7.5s3.4,7.5,7.5,7.5h92c4.1,0,7.5-3.4,7.5-7.5v-83
	C190.8,825.4,189.9,823.4,188.3,821.9z"/>
<path d="M-92.8,1070h-91c-0.4,0-0.8,0-1.2,0.1c-6.3,0.5-24.6,3.3-40,18.9c-15.8,16-23.6,40.1-23.2,71.6c0.3,25.4,6.2,59.6,32.5,78.6
	c7.4,5.3,14.8,8.3,20.7,9.9c2.1,4.7,6.8,7.9,12.3,7.9c7.5,0,13.5-6,13.5-13.5s-6-13.5-13.5-13.5c-3.8,0-7.3,1.6-9.8,4.2
	c-4.2-1.3-9.3-3.4-14.5-7.2c-16.8-12.1-25.9-35.2-26.3-66.6c-0.4-31.4,8-53.6,24.9-66c12.4-9.1,25.4-9.4,25.7-9.4h90
	c4.1,0,7.5-3.4,7.5-7.5S-88.7,1070-92.8,1070z"/>
<path d="M972.9,544.7c-8.5-15.1-26.1-33.2-61.3-33.2c-30.2,0-49.9,14.6-58.2,28.2c-14.9,24.3-8.9,57.2,13.6,74.9
	c20,15.8,48.7,13.9,49.9,13.9c0.1,0,0.2,0,0.3,0c27.8-3.1,45.8-22,45.8-48c0-12.7-4.6-25.3-12.5-34.5c-9.1-10.6-22.2-16.4-36.9-16.4
	c-16.7,0-30.2,5-39,14.5c-7.3,7.8-10.7,18-10,29.4c1.3,18.9,20.5,35.1,43,36.2c14.2,0.7,22.9-4.5,27.7-8.9
	c6.1-5.6,9.5-13.4,9.8-21.8c0.2-7.2-2.3-14.5-6.8-20.1c-3.9-4.8-11.3-10.7-24.2-11.4c-8.9-0.5-17.8,2.7-23.8,8.4
	c-4.3,4.1-6.7,9.1-6.7,14.2c0,5.3,2.2,10.1,6.1,13.6c3.9,3.5,9.4,5.4,15.2,5.4c2.2,1.7,4.9,2.7,7.9,2.7c7.3,0,13.2-5.9,13.2-13.2
	c0-7.3-5.9-13.2-13.2-13.2c-5.4,0-10,3.2-12,7.8c-0.4-0.2-0.8-0.5-1.2-0.8c-0.7-0.6-1-1.3-1-2.3c0-0.5,0.4-1.7,2.1-3.3
	c2.4-2.3,7-4.6,12.7-4.3c16.7,0.9,16.8,14.5,16.8,16.1c-0.1,4.4-1.9,8.3-5,11.2c-3.8,3.6-9.6,5.3-16.7,4.9
	c-16.3-0.8-28.1-12.1-28.7-22.2c-0.5-7.2,1.6-13.4,6-18.1c5.9-6.3,15.8-9.7,28.1-9.7c17.1,0,34.5,12.3,34.5,35.9
	c0,18.4-12.1,30.7-32.3,33.1c-2,0.1-24.7,1-39.5-10.7c-16.3-12.9-20.9-37.7-10.1-55.3c6.2-10.2,21.5-21.1,45.5-21.1
	c22.5,0,38.7,8.6,48.2,25.6c8.4,14.9,9.5,38,2.6,52.5c-4,8.4-16.3,27.8-45.1,27.8c-4.1,0-7.5,3.4-7.5,7.5s3.4,7.5,7.5,7.5
	c25.9,0,47.8-13.6,58.7-36.4C985,591.9,983.7,564,972.9,544.7z"/>
<path d="M679,462.2c-6.6-7.6-18.5-16.7-37.7-16.7c-17,0-30.8,5.1-39.9,14.8c-7.4,8-11,18.3-10.2,30c1.3,19.2,21,35.8,43.9,36.9
	c14.5,0.7,23.3-4.5,28.2-9.1c6.2-5.7,9.7-13.6,9.9-22.2c0.2-7.4-2.3-14.8-7-20.5c-4-4.9-11.5-10.9-24.7-11.6
	c-9-0.5-18.1,2.7-24.3,8.6c-4.4,4.2-6.8,9.3-6.8,14.4c0,5.4,2.2,10.3,6.1,13.8c3.4,3,8,4.9,13,5.3c2.4,2.5,5.8,4,9.6,4
	c7.5,0,13.5-6,13.5-13.5c0-7.5-6-13.5-13.5-13.5c-5.1,0-9.5,2.8-11.8,7c-0.3-0.2-0.6-0.4-0.8-0.6c-0.8-0.7-1.1-1.4-1.1-2.5
	c0-0.5,0.5-1.9,2.2-3.5c2.5-2.4,7.3-4.8,13.1-4.5c17.3,0.9,17.4,15,17.4,16.7c-0.1,4.5-1.9,8.6-5.1,11.6c-4,3.7-10,5.4-17.3,5.1
	c-16.9-0.8-28.9-12.5-29.6-23c-0.5-7.4,1.6-13.9,6.2-18.7c6-6.5,16.3-10,28.9-10c17.7,0,35.5,12.7,35.5,37c0,19-12.5,31.7-33.5,34.1
	c-4.1,0.5-7.1,4.2-6.6,8.3c0.4,3.8,3.7,6.7,7.4,6.7c0.3,0,0.6,0,0.9,0c28.4-3.2,46.8-22.4,46.8-49
	C691.8,484.6,687.2,471.7,679,462.2z"/>
<path d="M1304.5,391.5c-4-4.9-11.5-10.9-24.7-11.6c-9-0.5-18.1,2.7-24.3,8.6c-4.4,4.2-6.8,9.3-6.8,14.4c0,5.4,2.2,10.3,6.1,13.8
	c3.7,3.2,8.7,5.1,14,5.4c2.4,2.4,5.8,3.9,9.5,3.9c7.5,0,13.5-6,13.5-13.5c0-7.5-6-13.5-13.5-13.5c-5.2,0-9.8,3-12,7.4
	c-0.6-0.3-1.2-0.6-1.6-1c-0.8-0.7-1.1-1.4-1.1-2.5c0-0.5,0.5-1.9,2.2-3.5c2.5-2.4,7.3-4.8,13.1-4.5c17.3,0.9,17.4,15,17.4,16.7
	c-0.1,4.5-1.9,8.6-5.1,11.6c-4,3.7-10,5.4-17.3,5.1c-16.9-0.8-28.9-12.5-29.6-23c-0.3-4.1-3.9-7.3-8-7c-4.1,0.3-7.3,3.9-7,8
	c1.3,19.2,21,35.8,43.9,36.9c0.9,0,1.8,0.1,2.6,0.1c12.9,0,21-4.9,25.6-9.1c6.2-5.7,9.7-13.6,9.9-22.2
	C1311.7,404.6,1309.1,397.1,1304.5,391.5z"/>
<path d="M-91.8,455.2h-84.5v0c-2.7,0-4.8-2.1-4.8-4.8c0-2.7,2.1-4.8,4.8-4.8v0h76.9c0,0,0,0,0.1,0c0,0,0,0,0,0h0.5c0,0,0,0,0,0
	c10.7-0.3,19.3-9,19.3-19.8c0-10.7-8.6-19.5-19.2-19.8c0,0,0,0,0,0h-72.8c-2.4-3.6-6.5-6-11.2-6c-7.5,0-13.5,6-13.5,13.5
	c0,7.5,6,13.5,13.5,13.5c4.7,0,8.8-2.4,11.2-6h72.3c2.7,0,4.8,2.1,4.8,4.8s-2.1,4.8-4.8,4.8c0,0,0,0,0,0h-76.9c0,0,0,0,0,0
	c0,0,0,0-0.1,0c-10.9,0-19.8,8.9-19.8,19.8s8.9,19.8,19.8,19.8c0.3,0,0.6,0,0.9,0c0,0,0,0,0,0h83.5c4.1,0,7.5-3.4,7.5-7.5
	S-87.6,455.2-91.8,455.2z"/>
<path d="M2386.5,95.8c0-10.7-8.6-19.5-19.2-19.8c0,0,0,0,0,0h-72.2c-2.3-4.2-6.7-7-11.8-7c-7.5,0-13.5,6-13.5,13.5
	c0,7.5,6,13.5,13.5,13.5c4.2,0,8-2,10.5-5h73c2.7,0,4.8,2.1,4.8,4.8s-2.1,4.8-4.8,4.8c0,0,0,0,0,0h-74.3c0,0,0,0,0,0h-9.2
	c-4.1,0-7.5,3.4-7.5,7.5s3.4,7.5,7.5,7.5h80.2c0,0,0,0,0,0h3.2c0,0,0,0,0.1,0c0,0,0,0,0,0h0.5c0,0,0,0,0,0
	C2378,115.3,2386.5,106.6,2386.5,95.8z"/>
<path d="M1311.1,51.8c-14-13.1-37.4-13.4-50.1-0.6c-8.7,8.7-9.8,19.9-7.3,26.7c1.3,3.5,4.8,9,13.3,11.2c2.3,4.1,6.7,6.9,11.8,6.9
	c7.5,0,13.5-6,13.5-13.5c0-7.5-6-13.5-13.5-13.5c-4.1,0-7.7,1.8-10.2,4.6c-0.4-0.3-0.7-0.7-0.9-1.1c-0.9-2.3,0.6-7.4,3.8-10.7
	c6.9-6.9,21.4-6.4,29.3,1c4.8,4.5,7.4,10.4,7.4,16.6c0,6.3-2.6,12.2-7.4,16.6c-7.4,6.9-16.5,8.7-22.9,8.9c-4,0.2-7.2,3.5-7.2,7.5
	c0,18.3,0,81.9,0,115.9v20.1c0,4.1,3.4,7.5,7.5,7.5s7.5-3.4,7.5-7.5v-20.1c0-30.6,0-85.2,0-109.1c9.8-1.6,18.4-5.8,25.3-12.2
	c7.9-7.3,12.2-17.1,12.2-27.6C1323.3,69,1319,59.2,1311.1,51.8z"/>
<path d="M462.3,821.9l-92-83c-3.1-2.8-7.8-2.5-10.6,0.5c-2.8,3.1-2.5,7.8,0.5,10.6l89.5,80.8V903h-73.3c-2.4-3.6-6.5-6-11.2-6
	c-7.5,0-13.5,6-13.5,13.5c0,7.5,6,13.5,13.5,13.5c4.7,0,8.8-2.4,11.2-6h80.8c4.1,0,7.5-3.4,7.5-7.5v-83
	C464.8,825.4,463.9,823.4,462.3,821.9z"/>
<path d="M744.2,744.5c0-7.5-6-13.5-13.5-13.5s-13.5,6-13.5,13.5c0,4.9,2.6,9.2,6.5,11.5v147h-84.5c-4.1,0-7.5,3.4-7.5,7.5
	s3.4,7.5,7.5,7.5h92c4.1,0,7.5-3.4,7.5-7.5V755.4C742.1,752.9,744.2,749,744.2,744.5z"/>
<path d="M1004.2,737c-4.1,0-7.5,3.4-7.5,7.5V903h-72.3c-2.4-3.6-6.5-6-11.2-6c-7.5,0-13.5,6-13.5,13.5c0,7.5,6,13.5,13.5,13.5
	c4.7,0,8.8-2.4,11.2-6h79.8c4.1,0,7.5-3.4,7.5-7.5v-166C1011.8,740.4,1008.4,737,1004.2,737z"/>
<path d="M1552.8,736.5c-4.1,0-7.5,3.4-7.5,7.5v75.5h-84.5c-4.1,0-7.5,3.4-7.5,7.5v72.6c-3.3,2.5-5.5,6.4-5.5,10.9
	c0,7.5,6,13.5,13.5,13.5s13.5-6,13.5-13.5c0-4.9-2.6-9.2-6.5-11.5v-64.5h84.5c4.1,0,7.5-3.4,7.5-7.5v-83
	C1560.2,739.9,1556.9,736.5,1552.8,736.5z"/>
<path d="M1835.1,739.4c-1.8-1.9-4.3-2.7-6.7-2.3c-0.4-0.1-0.8-0.1-1.1-0.1h-80.8c-2.4-3.6-6.5-6-11.2-6c-7.5,0-13.5,6-13.5,13.5
	c0,7.5,6,13.5,13.5,13.5c4.7,0,8.8-2.4,11.2-6h79.8c28.5,31.9,37.1,67,25.6,104.3c-7.2,23.4-20.6,40.7-25.6,46.7h-90.9
	c-4.1,0-7.5,3.4-7.5,7.5s3.4,7.5,7.5,7.5h92c0.4,0,0.8,0,1.2-0.1c0.4,0.1,0.8,0.1,1.2,0.1c2,0,4-0.8,5.4-2.3
	c0.8-0.9,20.8-22.1,31-54.4C1875.5,831.1,1877.8,785.4,1835.1,739.4z"/>
<path d="M2100.8,897c-1,0-2,0.1-2.9,0.3l-77.4-69.8l73.3-66.1v66.1c0,4.1,3.4,7.5,7.5,7.5s7.5-3.4,7.5-7.5v-83c0-3-1.7-5.6-4.5-6.9
	c-2.7-1.2-5.9-0.7-8.1,1.3l-92,83c-1.6,1.4-2.5,3.4-2.5,5.6s0.9,4.1,2.5,5.6l83.2,75.1c-0.1,0.8-0.2,1.5-0.2,2.3
	c0,7.5,6,13.5,13.5,13.5s13.5-6,13.5-13.5C2114.2,903,2108.2,897,2100.8,897z"/>
<path d="M1311.6,714.8c-14-13.1-37.4-13.4-50.1-0.6c-6.1,6.1-10.9,17-7.3,26.7c1.3,3.5,4.7,8.9,13.1,11.2c2.4,3.6,6.5,6,11.2,6
	c7.5,0,13.5-6,13.5-13.5c0-7.5-6-13.5-13.5-13.5c-4.1,0-7.7,1.8-10.2,4.7c0,0,0-0.1-0.1-0.1c-0.9-2.3,0.6-7.4,3.8-10.7
	c6.9-6.9,21.4-6.4,29.3,1c4.8,4.5,7.4,10.4,7.4,16.6s-2.6,12.2-7.4,16.6c-6.3,5.9-13.8,8-19.9,8.7c-9.9-10-14-10.1-17.2-9.3
	c-3,0.8-5.3,3.1-6.1,6.2c-1.6,6.3,3.1,11.8,13.9,16.4c2.8,17.8,2.6,23.7-1,45.2c-0.7,4.1,2.1,8,6.2,8.6c0.4,0.1,0.8,0.1,1.2,0.1
	c3.6,0,6.8-2.6,7.4-6.3c3.6-21.8,4.1-29.5,1.5-46.7c9.3-1.8,17.6-5.8,24.2-12c7.9-7.3,12.2-17.1,12.2-27.6
	S1319.5,722.2,1311.6,714.8z"/>
<path d="M463,372.3c-10.7-1.1-20.9,2.1-28.8,9c-7.9,6.9-12.4,16.6-12.7,27.4c-0.3,9.1,2.1,18.1,7.1,26.4c-0.6,0.3-1.2,0.6-1.9,1
	c-5.1,2.6-12,6.1-25.8,18.1c-8.8,7.7-21.3,19.6-38.3,36.4c-2.9,2.9-3,7.7-0.1,10.6c1.5,1.5,3.4,2.2,5.3,2.2c1.9,0,3.8-0.7,5.3-2.2
	c16.8-16.5,29.1-28.2,37.7-35.8c12.3-10.8,18.1-13.7,22.7-16c1.9-1,3.7-1.9,5.7-3.2c0,0,0,0,0,0c4.6,2.3,8.8,3.5,12.3,3.5
	c4,0,7.1-1.5,9.2-4.4c2-2.9,2.1-6.4,0.4-9.2c-2.1-3.4-5.8-5.4-16.6-4.3c-3.9-5-8.3-12.8-8-22.6c0.2-6.5,2.9-12.4,7.6-16.5
	c4.7-4.1,10.9-6,17.4-5.4c10.8,1.1,20.7,11.7,20.1,21.3c-0.3,4.6-3.2,9.1-5.5,10c-1.9,0.7-4.5-1.5-5.8-2.8c-0.1-0.1-0.1-0.1-0.2-0.2
	c0.1-0.7,0.2-1.3,0.2-2c0-7.5-6-13.5-13.5-13.5s-13.5,6-13.5,13.5c0,7.5,6,13.5,13.5,13.5c1.1,0,2.2-0.1,3.2-0.4
	c8.9,8.8,17.2,7.6,21.3,6c9.7-3.6,14.7-14.5,15.3-23C497.7,391.6,482,374.2,463,372.3z"/>
<path d="M206.1,32.1c-13.4-10.6-40.3-21.3-71.8-16.4c-45.2,7-80,40.2-96.4,69.8C37,87,37,87,37,87C17,122.2,5.1,160.3,2.5,196.9
	c-2.2,32,3.1,61.8,14.6,81.6c9.1,15.8,21.7,24.5,35.4,24.5c19.2,0,33.5-9.7,41.5-28c5.7-13,6-25.8,6-26.3c0.1-4.1-3.2-7.6-7.3-7.6
	c-4.2-0.1-7.6,3.2-7.7,7.3c0,0.1-0.3,10.8-4.9,21C74.5,281.9,65.5,288,52.5,288c-8.1,0-16.1-6-22.4-17C13.6,242.6,5.6,172,50.6,93.5
	c0.1-0.2,0.2-0.3,0.3-0.5c27.1-41,54.4-57.7,85.7-62.5c26.8-4.1,49.2,4.6,60.2,13.4c10.7,8.5,11.9,22.2,6.8,30
	c-1.6,2.5-4.2,4.9-8,5.2c-1.5-5.8-6.8-10.1-13.1-10.1C175,69,169,75,169,82.5c0,7.5,6,13.5,13.5,13.5c2.8,0,5.3-0.8,7.4-2.2
	c10.5,1.8,20.2-2.3,26.2-11.7C225,68.4,223.6,46,206.1,32.1z"/>
<path d="M2374.5,731c-4.7,0-8.8,2.4-11.2,6h-80.8c0,0-0.1,0-0.1,0c-0.1,0-0.3,0-0.4,0c-0.1,0-0.2,0-0.4,0c-0.1,0-0.2,0-0.3,0.1
	c-0.1,0-0.3,0-0.4,0.1c-0.1,0-0.2,0-0.3,0.1c-0.1,0-0.3,0.1-0.4,0.1c-0.1,0-0.2,0.1-0.3,0.1c-0.1,0-0.3,0.1-0.4,0.2
	c-0.1,0-0.2,0.1-0.3,0.1c-0.1,0.1-0.2,0.1-0.4,0.2c-0.1,0.1-0.2,0.1-0.3,0.2c-0.1,0.1-0.2,0.1-0.3,0.2c-0.1,0.1-0.2,0.1-0.3,0.2
	c-0.1,0.1-0.2,0.2-0.3,0.2c-0.1,0.1-0.2,0.1-0.2,0.2c-0.1,0.1-0.2,0.2-0.3,0.3c0,0,0,0-0.1,0.1c-0.8,0.9-20.8,22.1-31,54.4
	c-9.5,30.2-11.8,75.8,30.9,121.9c1.5,1.6,3.5,2.4,5.5,2.4c1.8,0,3.7-0.7,5.1-2c3-2.8,3.2-7.6,0.4-10.6
	c-30.2-32.6-39.6-68.5-27.7-106.6c7.2-23.4,20.6-40.7,25.6-46.7h77.4c2.4,3.6,6.5,6,11.2,6c7.5,0,13.5-6,13.5-13.5
	C2388,737,2382,731,2374.5,731z"/>
</svg>
