<?xml version="1.0" encoding="utf-8"?>
<!-- Generator: Adobe Illustrator 23.0.1, SVG Export Plug-In . SVG Version: 6.00 Build 0)  -->
<svg version="1.1" id="Layer_1" xmlns="http://www.w3.org/2000/svg" xmlns:xlink="http://www.w3.org/1999/xlink" x="0px" y="0px"
	 viewBox="0 0 274 331" style="enable-background:new 0 0 274 331;" xml:space="preserve">
<style type="text/css">
	.st0{fill:#F2F2F2;}
</style>
<g>
	<circle class="st0" cx="1735.2" cy="248.5" r="13.5"/>
	<circle class="st0" cx="1735.2" cy="165.5" r="13.5"/>
	<circle class="st0" cx="1735.2" cy="82.5" r="13.5"/>
	<circle class="st0" cx="1826.8" cy="165.5" r="13.5"/>
	<circle class="st0" cx="1826.8" cy="82.5" r="13.5"/>
	<circle class="st0" cx="1826.8" cy="248.5" r="13.5"/>
</g>
<g>
	<circle class="st0" cx="913.2" cy="248.5" r="13.5"/>
	<circle class="st0" cx="913.2" cy="165.5" r="13.5"/>
	<circle class="st0" cx="913.2" cy="82.5" r="13.5"/>
	<circle class="st0" cx="1004.8" cy="165.5" r="13.5"/>
	<circle class="st0" cx="1004.8" cy="82.5" r="13.5"/>
	<circle class="st0" cx="1004.8" cy="248.5" r="13.5"/>
</g>
<g>
	<g>
		<circle class="st0" cx="2009.2" cy="248.5" r="13.5"/>
		<circle class="st0" cx="2009.2" cy="165.5" r="13.5"/>
		<circle class="st0" cx="2009.2" cy="82.5" r="13.5"/>
		<circle class="st0" cx="2100.8" cy="165.5" r="13.5"/>
		<circle class="st0" cx="2100.8" cy="82.5" r="13.5"/>
		<circle class="st0" cx="2100.8" cy="248.5" r="13.5"/>
	</g>
	<path d="M2100.8,256c-1.9,0-3.7-0.7-5.2-2.1c-3-2.9-3.1-7.6-0.3-10.6c0.3-0.4,18.7-20.1,27.7-49.1c11.8-38.2,2.5-74.1-27.7-106.6
		c-2.8-3-2.6-7.8,0.4-10.6c3-2.8,7.8-2.6,10.6,0.4c42.7,46,40.4,91.7,30.9,121.9c-10.2,32.3-30.1,53.5-31,54.4
		C2104.8,255.2,2102.8,256,2100.8,256z"/>
</g>
<path d="M913.2,256c-4.1,0-7.5-3.4-7.5-7.5v-166c0-4.1,3.4-7.5,7.5-7.5s7.5,3.4,7.5,7.5v166C920.8,252.6,917.4,256,913.2,256z"/>
<g>
	<g>
		<circle class="st0" cx="1187.2" cy="248.5" r="13.5"/>
		<circle class="st0" cx="1187.2" cy="165.5" r="13.5"/>
		<circle class="st0" cx="1187.2" cy="82.5" r="13.5"/>
		<circle class="st0" cx="1278.8" cy="165.5" r="13.5"/>
		<circle class="st0" cx="1278.8" cy="82.5" r="13.5"/>
		<circle class="st0" cx="1278.8" cy="248.5" r="13.5"/>
	</g>
	<g>
		<path d="M1278.5,90h-91c-4.1,0-7.5-3.4-7.5-7.5s3.4-7.5,7.5-7.5h91c4.1,0,7.5,3.4,7.5,7.5S1282.6,90,1278.5,90z"/>
	</g>
</g>
<g>
	<g>
		<circle class="st0" cx="1461.2" cy="248.5" r="13.5"/>
		<circle class="st0" cx="1461.2" cy="165.5" r="13.5"/>
		<circle class="st0" cx="1461.2" cy="82.5" r="13.5"/>
		<circle class="st0" cx="1552.8" cy="165.5" r="13.5"/>
		<circle class="st0" cx="1552.8" cy="82.5" r="13.5"/>
		<circle class="st0" cx="1552.8" cy="248.5" r="13.5"/>
	</g>
	<path d="M1461.5,173c-2,0-4.1-0.8-5.5-2.4c-2.8-3.1-2.6-7.8,0.5-10.6l91-83c3.1-2.8,7.8-2.6,10.6,0.5c2.8,3.1,2.6,7.8-0.5,10.6
		l-91,83C1465.1,172.4,1463.3,173,1461.5,173z"/>
</g>
<g>
	<g>
		<circle class="st0" cx="2283.2" cy="248.5" r="13.5"/>
		<circle class="st0" cx="2283.2" cy="165.5" r="13.5"/>
		<circle class="st0" cx="2283.2" cy="82.5" r="13.5"/>
		<circle class="st0" cx="2374.8" cy="165.5" r="13.5"/>
		<circle class="st0" cx="2374.8" cy="82.5" r="13.5"/>
		<circle class="st0" cx="2374.8" cy="248.5" r="13.5"/>
	</g>
	<path d="M2283.5,173c-4.1,0-7.5-3.4-7.5-7.5v-83c0-4.1,3.4-7.5,7.5-7.5s7.5,3.4,7.5,7.5v83C2291,169.6,2287.6,173,2283.5,173z"/>
</g>
<g>
	<g>
		<circle class="st0" cx="639.2" cy="248.5" r="13.5"/>
		<circle class="st0" cx="639.2" cy="165.5" r="13.5"/>
		<circle class="st0" cx="639.2" cy="82.5" r="13.5"/>
		<circle class="st0" cx="730.8" cy="165.5" r="13.5"/>
		<circle class="st0" cx="730.8" cy="82.5" r="13.5"/>
		<circle class="st0" cx="730.8" cy="248.5" r="13.5"/>
	</g>
	<path d="M666.3,61.5c-4-4.9-11.5-10.9-24.7-11.6c-9-0.5-18.1,2.7-24.3,8.6c-4.4,4.2-6.8,9.3-6.8,14.4c0,5.4,2.2,10.3,6.1,13.8
		c3.4,3,8,4.9,13,5.3c2.4,2.5,5.8,4,9.6,4c7.5,0,13.5-6,13.5-13.5s-6-13.5-13.5-13.5c-5.1,0-9.5,2.8-11.8,7
		c-0.3-0.2-0.6-0.4-0.8-0.6c-0.8-0.7-1.1-1.4-1.1-2.5c0-0.5,0.5-1.9,2.2-3.5c2.5-2.4,7.3-4.8,13.1-4.5c17.3,0.9,17.4,15,17.4,16.7
		c-0.1,4.5-1.9,8.6-5.1,11.6c-4,3.7-10,5.4-17.3,5.1c-4.1-0.2-7.7,3-7.9,7.1s3,7.7,7.1,7.9c0.9,0,1.8,0.1,2.6,0.1
		c12.9,0,21-4.9,25.6-9.1c6.2-5.7,9.7-13.6,9.9-22.2C673.4,74.6,670.9,67.1,666.3,61.5z"/>
</g>
<g>
	<g>
		<circle class="st0" cx="365.2" cy="248.5" r="13.5"/>
		<circle class="st0" cx="365.2" cy="165.5" r="13.5"/>
		<circle class="st0" cx="365.2" cy="82.5" r="13.5"/>
		<circle class="st0" cx="456.8" cy="165.5" r="13.5"/>
		<circle class="st0" cx="456.8" cy="82.5" r="13.5"/>
		<circle class="st0" cx="456.8" cy="248.5" r="13.5"/>
	</g>
	<path d="M479.4,58.5c-6.2-5.9-15.2-9.1-24.3-8.6c-13.1,0.7-20.7,6.7-24.7,11.6c-4.6,5.6-7.1,13.1-7,20.5c0.2,6.1,2,11.8,5.2,16.6
		c-19,21.7-58.3,78.1-70.8,148.7c-0.6,3.3,1.1,6.6,4.2,8.1c1,0.5,2.1,0.7,3.2,0.7c2.1,0,4.2-0.9,5.7-2.6
		c0.2-0.3,23.4-27.3,46.3-58.3c31.9-43.2,47.5-72.2,47.5-88.6c0-4.1-3.4-7.5-7.5-7.5s-7.5,3.4-7.5,7.5c0,19.2-37,71.6-69.6,112.2
		c6.4-20.9,15.4-41.9,26.7-62.2c14-25.1,28.8-44,37.2-52.6c1.4-1.5,2.2-3.4,2.1-5.5c-0.1-2-0.9-4-2.4-5.3c-3.2-3-5.1-7.1-5.2-11.7
		c-0.4-15.3,15.6-16.6,17.4-16.7c5.9-0.3,10.6,2.1,13.1,4.5c1.7,1.6,2.2,3,2.2,3.5c0,1.1-0.3,1.9-1.1,2.5c-0.4,0.3-0.9,0.6-1.4,0.9
		c-2.2-4.3-6.8-7.3-12-7.3c-7.5,0-13.5,6-13.5,13.5s6,13.5,13.5,13.5c3.7,0,7.1-1.5,9.6-4c5.3-0.3,10.2-2.2,13.8-5.4
		c4-3.5,6.1-8.4,6.1-13.8C486.2,67.8,483.8,62.7,479.4,58.5z"/>
</g>
<g>
	<g>
		<circle class="st0" cx="91.2" cy="248.5" r="13.5"/>
		<circle class="st0" cx="91.2" cy="165.5" r="13.5"/>
		<circle class="st0" cx="91.2" cy="82.5" r="13.5"/>
		<circle class="st0" cx="182.8" cy="165.5" r="13.5"/>
		<circle class="st0" cx="182.8" cy="82.5" r="13.5"/>
		<circle class="st0" cx="182.8" cy="248.5" r="13.5"/>
	</g>
	<path d="M206.3,32.1c-13.4-10.6-40.3-21.3-71.8-16.4C89.3,22.7,57,58,38,86c-0.4,0.5,0,0-0.8,1.2c-20,35.2-31.9,73-34.5,109.7
		c-2.2,32,3.1,61.8,14.6,81.6C26.5,294.3,39,303,52.7,303c12.3,0,22.6-4,30.5-12C99,275.2,99,249.5,99,248.5c0-4.1-3.4-7.5-7.5-7.5
		c0,0,0,0,0,0c-4.1,0-7.5,3.4-7.5,7.5c0,0.2-0.2,20.7-11.4,31.9c-5,5.1-11.5,7.5-19.9,7.5c-8.1,0-16.1-6-22.4-17
		C13.9,242.6,5.8,172,50.9,93.5c0.1-0.2,0.2-0.3,0.3-0.5c24.8-36.1,54.4-57.7,85.7-62.5c26.8-4.1,49.2,4.6,60.2,13.4
		c10.7,8.5,11.9,22.2,6.8,30c-2.6,4-7.7,7.9-16.9,3c-3.7-1.9-8.2-0.5-10.1,3.2c-1.9,3.7-0.5,8.2,3.2,10.1
		c14.1,7.4,28.4,4.2,36.4-8.2C225.3,68.4,223.9,46,206.3,32.1z"/>
</g>
</svg>
